<?xml version="1.0" standalone="no"?>
<!DOCTYPE svg PUBLIC "-//W3C//DTD SVG 20010904//EN"
 "http://www.w3.org/TR/2001/REC-SVG-20010904/DTD/svg10.dtd">
<svg version="1.0" xmlns="http://www.w3.org/2000/svg"
 width="566.000000pt" height="180.000000pt" viewBox="0 0 566.000000 180.000000"
 preserveAspectRatio="xMidYMid meet">

<g transform="translate(0.000000,180.000000) scale(0.100000,-0.100000)"
fill="#000000" stroke="none">
<path d="M2709 1778 c-20 -16 -72 -86 -89 -117 -10 -19 -10 -22 2 -15 7 4 6 0
-4 -12 -18 -21 -52 -128 -38 -119 4 3 10 -1 13 -7 3 -9 15 -3 35 16 27 25 32
27 38 12 10 -25 -14 -45 -51 -42 -24 1 -36 -3 -45 -18 -12 -19 -12 -20 3 -7
10 7 17 12 18 10 7 -39 8 -49 1 -45 -5 3 -17 0 -26 -7 -13 -10 -20 -37 -26
-117 -7 -70 -6 -106 1 -110 6 -4 5 -11 -3 -18 -8 -6 -15 -36 -16 -71 -2 -54
-1 -60 15 -55 16 5 16 4 -1 -10 -16 -13 -19 -27 -17 -98 1 -45 7 -85 13 -89 7
-4 7 -9 0 -13 -12 -7 1 -74 23 -117 34 -66 120 -102 188 -80 38 13 87 47 87
61 0 4 -21 12 -47 17 -44 7 -49 11 -61 47 -15 46 -17 231 -3 374 9 98 11 105
49 155 33 43 75 121 70 130 -1 1 6 13 15 27 25 39 38 117 31 184 -11 105 -44
146 -114 146 -25 0 -53 -6 -61 -12z m138 -43 c0 -8 -4 -15 -9 -15 -4 0 -8 7
-8 15 0 8 4 15 8 15 5 0 9 -7 9 -15z m-164 -106 c5 -4 -3 -9 -17 -11 -14 -3
-26 -1 -26 3 0 5 4 9 9 9 5 0 7 10 4 23 -4 21 -4 21 8 2 7 -11 16 -23 22 -26z
m116 -89 c-1 -60 -6 -110 -11 -110 -4 0 -8 -6 -8 -14 0 -8 -9 -24 -20 -37
l-19 -24 -1 27 c0 29 28 234 35 256 2 6 9 12 15 12 8 0 11 -35 9 -110z m-89
15 c-14 -17 -30 -20 -30 -4 0 5 4 8 9 4 5 -3 12 -1 16 5 3 5 9 10 12 10 3 0 0
-7 -7 -15z m-80 1 c0 -2 -8 -10 -17 -17 -16 -13 -17 -12 -4 4 13 16 21 21 21
13z m88 -40 c-7 -8 -15 -12 -17 -11 -5 6 10 25 20 25 5 0 4 -6 -3 -14z"/>
<path d="M4320 1753 c-18 -20 -44 -61 -57 -90 -37 -80 -84 -279 -82 -343 2
-30 -2 -80 -9 -110 -19 -97 -24 -320 -8 -387 28 -121 86 -183 170 -183 70 0
150 49 131 80 -3 6 -21 10 -39 10 -58 0 -68 22 -73 167 -3 70 0 177 5 237 10
99 14 113 42 150 17 23 52 84 78 136 46 93 47 96 47 191 0 88 -2 99 -28 137
-27 41 -28 42 -86 42 -55 0 -61 -2 -91 -37z m122 -185 c2 -66 -1 -94 -18 -136
-33 -83 -48 -89 -40 -17 11 100 38 235 47 235 4 0 9 -37 11 -82z m-182 -531
c0 -2 -9 -12 -20 -22 -24 -21 -27 -14 -4 9 15 15 24 20 24 13z"/>
<path d="M268 1605 c-140 -51 -225 -178 -216 -323 3 -56 9 -75 38 -118 19 -28
42 -65 51 -81 9 -17 52 -57 95 -89 104 -78 139 -142 139 -250 0 -56 -4 -77
-17 -91 -17 -16 -21 -15 -74 23 -49 34 -60 48 -88 114 -27 64 -36 75 -59 78
-37 4 -103 -35 -118 -69 -19 -47 -3 -150 30 -196 45 -62 131 -116 195 -121 70
-6 102 10 200 101 72 67 79 76 92 132 18 81 18 199 -2 266 -14 46 -30 68 -116
154 -137 137 -167 200 -134 280 20 46 34 44 42 -4 3 -22 14 -53 24 -69 25 -41
120 -82 120 -52 0 6 11 15 25 22 13 6 28 23 33 37 10 30 -5 117 -35 196 -15
41 -25 52 -53 62 -46 16 -126 15 -172 -2z"/>
<path d="M3680 1601 c-43 -6 -44 -6 -18 -18 19 -8 28 -9 37 0 7 7 11 7 11 1 0
-16 -32 -42 -61 -49 -21 -5 -29 -1 -43 20 -9 14 -25 25 -34 24 -9 -1 -25 1
-34 5 -28 13 -53 2 -49 -19 3 -19 2 -19 -17 -2 -15 14 -25 16 -46 8 -31 -12
-32 -26 -7 -65 17 -26 18 -45 15 -236 l-5 -208 51 3 c48 3 50 2 50 -23 0 -20
3 -23 12 -14 27 27 37 8 13 -24 -13 -16 -16 -17 -25 -4 -9 12 -10 11 -6 -5 3
-11 -1 -29 -9 -39 -13 -17 -17 -17 -31 -5 -16 13 -16 12 -4 -8 9 -13 18 -19
25 -13 20 16 85 23 100 10 9 -7 15 -8 15 -2 0 7 8 6 24 -1 22 -11 23 -13 9
-34 -9 -13 -11 -23 -5 -23 5 0 12 7 16 15 3 8 10 15 16 15 6 0 4 -7 -4 -16
-19 -18 -20 -30 -5 -39 6 -4 -21 -30 -62 -60 -40 -29 -78 -64 -86 -79 -7 -14
-18 -26 -23 -26 -6 0 -10 -6 -10 -14 0 -24 -22 -30 -37 -11 -12 18 -13 18 -13
-4 0 -39 88 -149 130 -163 13 -5 15 1 12 29 l-4 35 70 -7 c64 -6 77 -4 128 19
31 15 96 55 143 91 83 61 103 86 141 175 6 14 17 36 25 50 38 66 4 169 -82
246 -55 50 -63 74 -24 74 24 0 45 25 75 90 29 62 33 118 12 159 -20 38 -94
103 -108 95 -6 -4 -8 -3 -5 3 4 6 -1 14 -10 18 -10 3 -19 1 -21 -4 -2 -6 -8
-11 -14 -11 -6 0 -8 6 -5 14 4 9 -3 16 -18 18 -16 4 -22 1 -18 -9 7 -18 -12
-17 -31 2 -18 18 -30 19 -23 2 3 -9 -5 -13 -26 -12 -17 0 -32 6 -35 14 -3 9 1
11 17 6 12 -4 21 -2 21 4 0 12 -35 12 -110 2z m-170 -91 c0 -5 -4 -10 -10 -10
-5 0 -10 5 -10 10 0 6 5 10 10 10 6 0 10 -4 10 -10z m345 -29 c57 -41 63 -53
44 -104 -13 -38 -13 -47 -1 -65 12 -18 11 -22 -10 -32 -21 -10 -21 -10 -5 3
15 13 16 16 2 27 -13 11 -18 11 -28 0 -10 -10 -9 -11 3 -5 8 5 12 5 8 0 -5 -5
-22 -10 -39 -12 -31 -3 -31 -2 -25 32 8 40 -14 114 -44 153 -11 13 -20 29 -20
34 0 18 74 -2 115 -31z m-89 -178 c-7 -7 -26 7 -26 19 0 6 6 6 15 -2 9 -7 13
-15 11 -17z m94 -52 c0 -12 -20 -25 -27 -18 -7 7 6 27 18 27 5 0 9 -4 9 -9z
m-38 -58 c-3 -16 -7 -22 -10 -15 -4 13 4 42 11 42 2 0 2 -12 -1 -27z m4 -52
c-14 -16 -15 -20 -2 -30 10 -8 16 -9 19 -1 3 6 4 5 3 -2 -2 -7 8 -26 20 -41
13 -16 25 -38 25 -50 3 -43 1 -62 -6 -79 -5 -13 -2 -18 11 -19 17 -1 17 -2 2
-6 -17 -4 -22 -15 -19 -40 1 -7 -2 -13 -7 -13 -5 0 -17 -21 -27 -47 -21 -56
-39 -80 -79 -100 -24 -12 -30 -13 -37 -2 -5 9 -2 22 7 34 8 11 17 27 20 35 3
8 10 23 15 32 15 28 10 66 -8 77 -15 8 -16 12 -5 22 9 10 12 10 12 1 0 -7 5
-12 11 -12 6 0 9 9 6 20 -3 11 -1 20 5 20 6 0 8 15 5 38 -18 124 -19 142 -8
142 7 0 9 5 5 13 -4 6 -4 9 1 5 4 -4 14 -1 22 7 21 22 29 18 9 -4z m109 -151
c-10 -11 -23 -20 -29 -20 -6 1 0 10 13 20 30 26 39 26 16 0z m-385 -25 c-7 -9
-15 -13 -19 -10 -3 3 1 10 9 15 21 14 24 12 10 -5z m520 -45 c0 -5 -4 -10 -10
-10 -5 0 -10 5 -10 10 0 6 5 10 10 10 6 0 10 -4 10 -10z m-153 -34 c-8 -8 -17
-12 -21 -9 -3 3 2 12 12 19 22 16 29 9 9 -10z m-150 -12 c-3 -3 -12 -4 -19 -1
-8 3 -5 6 6 6 11 1 17 -2 13 -5z m-57 -158 c0 -3 -4 -8 -10 -11 -5 -3 -10 -1
-10 4 0 6 5 11 10 11 6 0 10 -2 10 -4z"/>
<path d="M3610 1575 c0 -18 21 -28 47 -23 14 3 11 8 -14 21 -29 15 -33 16 -33
2z"/>
<path d="M724 1400 c-34 -13 -37 -28 -16 -62 l20 -31 26 26 c29 29 34 62 10
71 -9 3 -16 6 -17 5 -1 0 -12 -4 -23 -9z"/>
<path d="M700 1231 c-22 -6 -27 -19 -57 -146 -41 -177 -44 -276 -9 -351 27
-59 95 -121 142 -130 49 -9 103 21 130 74 12 23 20 42 18 42 -2 0 5 9 16 20
27 27 25 40 -7 40 -20 0 -37 -11 -60 -37 -31 -37 -32 -38 -60 -22 -23 13 -28
21 -26 51 1 20 12 63 24 95 27 75 33 126 24 229 -10 125 -45 160 -135 135z"/>
<path d="M4676 1121 c-25 -32 -60 -94 -77 -137 -28 -69 -33 -91 -33 -169 0
-103 12 -135 70 -183 49 -40 112 -56 166 -41 67 18 85 36 120 121 25 60 40 84
61 95 15 8 46 42 68 75 34 53 39 69 39 118 0 31 -3 60 -7 63 -3 4 -25 -21 -48
-56 -23 -34 -49 -68 -58 -75 -14 -12 -16 -8 -22 33 -10 60 -43 109 -78 113
-15 2 -27 10 -27 17 0 8 -14 30 -31 50 -24 27 -39 35 -64 35 -29 0 -40 -8 -79
-59z m190 -208 c8 -43 0 -51 -26 -28 -20 18 -28 74 -13 89 11 11 32 -22 39
-61z m-12 -147 c-18 -59 -54 -103 -74 -91 -24 15 -42 68 -36 109 11 65 22 70
72 34 35 -25 43 -36 38 -52z"/>
<path d="M1050 1150 c-9 -6 -16 -26 -16 -52 -1 -24 -7 -119 -13 -213 -10 -162
-9 -172 10 -212 11 -22 25 -43 32 -46 7 -2 38 -2 70 1 68 5 78 17 131 140 47
113 100 221 107 222 4 0 8 -62 11 -137 4 -171 16 -199 85 -205 55 -4 57 -2 73
47 6 22 32 81 56 132 41 87 43 93 26 109 -16 17 -16 17 5 12 14 -4 27 0 35 11
12 14 11 15 -4 2 -15 -11 -19 -11 -24 3 -3 9 -16 16 -28 16 -17 0 -18 -2 -6
-10 17 -11 10 -13 -14 -4 -9 3 -13 11 -9 17 4 7 0 8 -11 4 -13 -5 -17 -3 -13
6 8 20 -28 94 -51 106 -29 15 -108 14 -140 -3 -15 -8 -49 -37 -75 -65 -27 -28
-56 -51 -65 -51 -13 0 -14 2 -4 8 7 5 10 16 6 26 -4 10 -2 21 4 25 8 5 7 14
-4 30 -13 18 -19 20 -26 10 -8 -11 -9 -11 -5 2 7 22 -2 33 -50 58 -46 23 -70
26 -93 11z m488 -183 c8 -9 12 -20 9 -23 -10 -10 -32 19 -34 46 -1 14 0 18 4
10 3 -8 12 -23 21 -33z m-32 -15 c9 -14 7 -21 -14 -36 -22 -17 -25 -17 -19 -3
3 9 2 17 -3 17 -6 0 -5 9 2 20 16 25 20 25 34 2z m114 -49 c0 -23 -23 -9 -25
15 -1 17 1 19 12 11 7 -6 13 -18 13 -26z"/>
<path d="M3145 1127 l-49 -32 43 -3 c28 -2 49 2 60 12 11 10 21 12 27 6 5 -5
30 -14 56 -18 41 -8 45 -7 41 9 -8 30 -41 52 -85 55 -35 3 -52 -2 -93 -29z"/>
<path d="M1713 1132 c-50 -19 -53 -26 -17 -45 24 -13 29 -12 46 5 10 10 16 23
13 28 -3 5 3 13 12 19 27 16 -4 12 -54 -7z"/>
<path d="M1965 1110 c-4 -6 -8 -43 -11 -83 -6 -104 -41 -433 -64 -592 -13 -99
-12 -198 3 -216 6 -8 31 -27 54 -42 34 -22 47 -25 68 -17 14 5 25 15 25 22 0
7 9 42 20 78 10 36 31 108 45 160 14 52 38 124 52 159 l26 63 36 -8 c68 -14
128 -9 165 17 44 30 62 62 81 143 14 59 14 73 1 130 -25 105 -45 145 -80 160
-37 15 -108 9 -119 -10 -5 -8 -12 -12 -18 -9 -17 11 -9 -31 11 -53 22 -24 28
-51 8 -34 -7 6 -38 9 -68 7 -32 -2 -58 2 -62 8 -4 7 -14 2 -27 -14 -17 -20
-20 -21 -21 -6 0 9 5 17 10 17 6 0 10 5 10 11 0 5 -6 7 -12 3 -7 -4 -5 1 4 11
15 16 15 20 1 41 -31 48 -120 83 -138 54z m355 -64 c0 -2 -8 -10 -17 -17 -16
-13 -17 -12 -4 4 13 16 21 21 21 13z m39 -85 c20 -61 14 -123 -20 -191 -32
-64 -62 -85 -140 -104 -26 -6 -26 -5 -22 42 5 49 34 146 56 185 19 35 100 118
108 109 3 -4 11 -22 18 -41z m-305 -183 c-7 -23 -6 -23 14 -5 20 18 20 18 15
-2 -4 -15 1 -23 18 -30 23 -9 23 -9 4 -16 -11 -3 -28 -11 -37 -16 -10 -5 -23
-9 -30 -9 -7 1 -1 8 15 16 15 8 27 19 27 24 0 16 -20 12 -26 -5 -8 -20 -50
-19 -58 1 -9 23 -7 36 4 29 6 -4 7 1 3 11 -5 13 -2 16 9 12 8 -4 21 -2 29 3
20 13 21 12 13 -13z"/>
<path d="M1640 1085 c-6 -8 -8 -20 -4 -26 4 -7 3 -9 -3 -6 -13 8 -46 -40 -38
-53 10 -16 28 -11 21 5 -3 9 0 15 9 15 12 0 45 57 45 76 0 9 -19 3 -30 -11z"/>
<path d="M5242 1075 c-16 -14 -48 -60 -71 -104 -33 -64 -41 -89 -41 -133 0
-32 6 -62 16 -76 21 -31 86 -62 143 -69 43 -5 51 -2 85 28 l38 32 -7 -39 c-3
-21 -48 -125 -100 -229 -100 -203 -114 -246 -115 -340 0 -79 14 -104 73 -126
47 -19 48 -19 87 1 45 23 77 64 107 135 24 56 108 322 118 374 4 18 15 52 26
75 14 32 20 76 23 184 4 102 10 151 21 173 21 40 11 73 -20 65 -15 -4 -28 1
-40 14 -12 14 -31 20 -59 20 -54 0 -96 -36 -96 -83 0 -59 -83 -207 -116 -207
-27 0 -17 81 20 161 45 99 51 132 31 153 -25 25 -88 21 -123 -9z m108 -721
c-6 -27 -15 -91 -19 -142 -6 -65 -13 -98 -25 -110 -24 -24 -39 -2 -44 65 -3
53 1 67 43 152 25 51 48 91 51 89 2 -3 0 -27 -6 -54z"/>
<path d="M1766 1035 c4 -11 -1 -15 -17 -15 -23 -1 -23 -1 -5 -15 17 -13 15
-19 -5 -17 -3 1 -6 -4 -6 -11 -1 -7 -4 -73 -8 -148 -7 -114 -5 -143 9 -186 18
-55 28 -67 64 -77 21 -7 22 -5 22 63 0 38 5 82 10 97 14 36 14 304 0 318 -7 7
-15 4 -25 -10 -13 -17 -14 -17 -15 -1 0 9 -7 17 -15 17 -9 0 -12 -6 -9 -15z"/>
<path d="M2207 1043 c-12 -11 -8 -25 5 -17 7 5 9 2 5 -9 -4 -11 -2 -14 9 -10
16 6 16 6 8 27 -7 17 -16 20 -27 9z"/>
<path d="M1647 996 c-10 -8 -14 -17 -9 -20 5 -3 17 3 27 14 21 23 9 26 -18 6z"/>
<path d="M3435 1000 c-3 -5 -1 -10 4 -10 6 0 11 5 11 10 0 6 -2 10 -4 10 -3 0
-8 -4 -11 -10z"/>
<path d="M3030 939 c0 -5 5 -7 10 -4 6 3 10 8 10 11 0 2 -4 4 -10 4 -5 0 -10
-5 -10 -11z"/>
<path d="M3462 926 c7 -8 15 -12 17 -11 5 6 -10 25 -20 25 -5 0 -4 -6 3 -14z"/>
<path d="M2930 891 c-18 -63 -4 -151 20 -136 7 4 9 -2 5 -17 -3 -14 2 -32 15
-48 11 -14 20 -20 20 -14 0 6 -7 17 -15 24 -21 18 -19 29 5 23 24 -6 25 0 4
32 -17 26 -13 55 8 55 10 0 10 -2 -1 -9 -7 -5 -10 -14 -6 -20 5 -9 10 -9 21 0
8 6 18 9 22 5 4 -4 -1 -13 -11 -20 -22 -17 -22 -22 2 -29 15 -4 18 -1 13 12
-5 14 -4 14 11 2 15 -11 17 -11 17 2 0 8 -6 17 -12 20 -7 3 4 3 25 2 35 -3 37
-2 37 26 0 25 4 29 29 29 32 0 96 24 106 40 6 9 -38 15 -74 10 -8 -1 -11 4 -9
12 4 9 -3 13 -21 14 -47 3 -71 8 -71 16 0 5 -9 3 -19 -4 -14 -9 -31 -9 -65 -1
l-46 10 -10 -36z"/>
<path d="M3106 717 c3 -10 9 -15 12 -12 3 3 0 11 -7 18 -10 9 -11 8 -5 -6z"/>
<path d="M3174 715 c-7 -17 12 -45 30 -45 6 0 3 5 -7 11 -12 7 -16 17 -12 30
7 22 -3 26 -11 4z"/>
<path d="M3014 678 c-5 -8 -1 -9 10 -5 14 6 15 3 6 -14 -10 -17 -14 -18 -28
-7 -12 10 -14 10 -8 0 4 -6 21 -19 37 -27 26 -14 30 -14 35 -1 3 8 1 23 -5 34
-6 11 -8 21 -6 24 2 2 -5 4 -15 5 -11 1 -23 -3 -26 -9z"/>
<path d="M3107 669 c7 -7 15 -10 18 -7 3 3 -2 9 -12 12 -14 6 -15 5 -6 -5z"/>
<path d="M3177 653 c-4 -3 -7 -11 -7 -17 0 -6 5 -5 12 2 6 6 9 14 7 17 -3 3
-9 2 -12 -2z"/>
</g>
</svg>
